<svg xmlns="http://www.w3.org/2000/svg" width="960" height="960" viewBox="0 0 960 960"><g fill="none" stroke="#463219" stroke-linejoin="round" stroke-linecap="round"><path stroke-width="1.3" d="M434 347Q432 347 428 349Q424 350 420 353Q416 356 412 360Q409 364 407 368Q405 372 404 376Q402 380 402 386Q401 392 401 396Q402 400 403 406Q404 412 407 418Q409 424 412 431Q416 437 422 446Q428 455 438 468Q448 481 452 486Q456 490 460 494Q464 497 468 499Q472 501 476 501Q480 502 484 501Q488 500 491 498Q494 496 495 494Q497 492 499 488Q501 484 502 480Q503 476 503 472Q503 468 502 462Q501 456 499 448Q497 440 489 416Q481 392 478 384Q474 376 471 371Q468 365 464 360Q460 356 456 353Q452 350 448 348Q444 347 440 347Q436 347 434 347ZM602 531Q600 531 594 533Q588 535 583 537Q578 540 573 544Q569 548 566 552Q563 556 561 562Q558 568 556 576Q554 584 553 592Q552 600 553 608Q553 616 555 622Q556 628 558 634Q561 640 564 646Q568 652 572 658Q577 664 583 669Q588 674 594 678Q600 682 606 684Q612 686 616 686Q620 686 624 685Q628 683 632 680Q636 676 638 672Q641 668 644 660Q648 652 652 640Q656 628 660 616Q663 604 665 596Q666 588 666 580Q666 572 665 567Q664 563 662 558Q660 554 658 551Q656 548 652 544Q647 540 644 538Q640 536 634 534Q628 532 622 531Q616 530 610 531Q604 531 602 531ZM434 327Q432 328 426 330Q420 332 416 334Q412 336 408 339Q404 343 400 347Q396 352 393 356Q391 360 388 366Q386 372 385 376Q384 380 383 386Q382 392 382 400Q382 408 384 416Q385 424 388 432Q390 440 398 462Q406 484 408 492Q409 500 413 520Q416 540 418 548Q421 556 425 562Q429 568 433 571Q436 575 440 577Q443 580 450 583Q456 587 472 593Q488 599 492 601Q496 604 500 607Q504 610 508 614Q512 619 524 635Q537 652 543 660Q550 668 558 676Q565 684 575 692Q584 700 592 706Q600 712 606 715Q612 719 618 721Q624 723 630 724Q636 724 640 723Q644 722 648 719Q652 715 655 710Q659 704 661 696Q663 688 667 670Q671 652 676 630Q682 608 683 598Q685 588 685 582Q686 576 686 570Q685 564 684 558Q683 552 681 548Q680 544 677 540Q675 536 672 532Q668 528 664 525Q660 521 656 519Q652 516 642 512Q632 508 608 502Q584 495 578 493Q572 490 566 486Q560 482 556 478Q552 474 548 469Q544 464 534 450Q524 435 516 421Q508 406 497 383Q486 360 481 352Q476 344 472 340Q468 336 464 333Q460 331 454 329Q448 327 442 327Q436 327 434 327ZM-16 509Q-11 516 -11 520Q-10 524 -11 527Q-12 530 -14 532L-16 534M438 312Q436 312 430 314Q424 315 418 318Q412 320 406 324Q400 328 396 332Q391 336 388 340Q384 344 380 350Q377 356 374 362Q372 368 369 376Q367 384 366 396Q365 408 365 422Q366 436 370 460Q374 484 377 508Q379 532 381 540Q383 548 386 554Q388 560 392 566Q395 572 398 576Q401 580 408 588Q416 596 425 602Q433 608 455 619Q476 630 486 637Q496 643 504 650Q512 657 538 680Q563 704 580 717Q596 731 604 736Q612 741 618 744Q624 747 630 748Q636 750 642 750Q648 750 654 748Q660 745 664 742Q668 739 672 734Q676 728 679 720Q682 712 685 684Q688 656 694 628Q699 600 701 590Q702 580 702 572Q702 564 701 558Q701 552 699 546Q697 540 696 536Q694 532 691 528Q689 524 686 520Q682 516 675 510Q668 504 658 499Q648 494 630 487Q612 480 604 476Q596 473 588 468Q581 464 574 459Q568 454 558 444Q548 434 538 421Q528 408 521 396Q514 384 504 364Q494 344 489 336Q484 328 480 324Q476 320 470 317Q464 314 458 312Q452 311 446 311Q440 311 438 312ZM922 503Q920 504 918 506Q915 508 914 512Q912 516 912 520Q913 524 914 528Q916 531 919 534Q921 536 925 537Q928 539 930 539Q932 539 936 538Q940 537 943 535Q946 532 948 530Q949 528 949 524Q950 520 949 517Q948 515 946 512Q944 509 941 506Q938 504 935 503Q932 502 928 502Q924 502 922 503ZM-16 437Q-4 443 2 448Q8 452 14 457Q20 463 25 470Q30 476 35 484Q40 492 44 500Q48 508 50 516Q53 524 55 532Q56 540 56 544Q56 548 54 552Q52 556 50 559Q48 561 44 564Q40 567 36 570Q31 572 24 575Q16 578 8 580Q0 583 -8 584L-16 586M976 459Q968 452 962 448Q956 443 952 441Q948 439 942 437Q936 435 930 433Q924 432 918 431Q912 430 906 431Q900 431 896 432Q892 432 888 434Q884 435 879 438Q875 440 871 443Q868 446 866 449Q864 452 862 456Q860 460 858 464Q857 468 856 474Q855 480 855 486Q855 492 856 506Q857 520 860 532Q863 544 865 550Q867 556 870 560Q872 564 875 568Q878 572 881 575Q884 577 888 580Q892 582 896 584Q900 585 904 586Q908 587 914 588Q920 588 926 588Q932 588 940 586Q948 585 962 582L976 578M454 283Q452 283 440 286Q428 289 418 293Q408 297 400 301Q392 305 384 312Q376 318 369 325Q363 332 357 340Q352 348 347 358Q342 368 333 392Q324 416 320 423Q316 430 312 435Q308 440 302 445Q296 450 290 452Q284 455 278 456Q272 457 254 460Q236 462 232 464Q228 465 224 467Q220 470 216 474Q212 478 201 493Q190 508 183 515Q176 523 168 529Q160 535 141 548Q121 560 116 564Q112 568 109 572Q106 576 105 580Q104 584 104 588Q104 592 106 598Q108 604 112 611Q116 617 119 621Q122 624 125 626Q128 628 132 630Q136 632 140 633Q144 634 148 634Q152 634 156 633Q160 633 166 630Q173 628 180 623Q188 618 194 613Q200 608 218 591Q236 574 246 568Q256 561 264 557Q272 553 278 552Q284 551 290 550Q296 550 302 551Q308 552 314 555Q320 557 328 563Q336 568 357 588Q377 608 389 617Q400 627 410 634Q420 640 446 655Q472 669 486 678Q500 688 516 700Q532 712 558 734Q584 755 592 761Q600 767 608 772Q615 776 622 778Q628 780 634 781Q640 782 648 782Q656 782 661 781Q666 780 671 778Q677 776 680 774Q684 772 689 768Q695 764 699 760Q702 756 705 752Q708 748 711 742Q714 736 716 730Q718 724 720 714Q721 704 723 674Q724 644 728 618Q731 592 732 580Q733 568 733 560Q733 552 732 546Q732 540 731 534Q729 528 727 522Q725 516 722 510Q719 504 716 499Q712 494 707 489Q702 484 697 480Q692 476 682 470Q672 464 648 453Q624 442 614 437Q604 431 592 423Q580 415 571 408Q563 400 555 391Q548 383 542 373Q536 364 531 354Q527 344 519 324Q512 304 509 300Q507 296 503 292Q500 288 496 286Q492 284 488 283Q484 282 478 282Q472 281 464 282Q456 283 454 283ZM98 307Q96 308 88 310Q80 312 74 314Q69 316 64 319Q60 321 56 325Q52 329 49 335Q47 340 46 344Q46 348 47 353Q48 359 50 363Q53 368 58 374Q63 380 68 384Q73 388 80 392Q87 396 95 400Q104 404 114 407Q124 411 134 413Q144 416 152 417Q160 418 166 417Q172 417 176 416Q180 415 182 413Q184 412 186 410Q188 408 190 404Q192 400 193 394Q194 388 194 382Q194 376 193 368Q192 360 189 352Q186 344 183 338Q180 332 177 328Q174 324 171 322Q168 319 164 316Q160 314 154 312Q148 309 142 308Q136 307 130 306Q124 306 112 306Q100 307 98 307ZM914 775Q912 775 907 778Q902 780 897 784Q892 788 890 792Q887 796 885 802Q884 808 884 812Q885 816 886 819Q888 821 890 823Q892 824 896 825Q900 825 904 825Q908 825 914 822Q920 820 926 816Q932 812 936 808Q939 804 941 800Q943 796 943 792Q943 788 942 786Q941 784 939 782Q938 780 935 778Q932 777 930 776Q928 775 922 775Q916 775 914 775ZM976 320Q970 328 966 334Q963 340 958 356Q952 372 950 375Q948 379 946 380Q944 382 940 384Q936 386 932 388Q928 389 898 395Q868 401 862 403Q856 405 850 407Q844 410 839 413Q834 416 831 420Q827 424 824 430Q822 436 821 442Q820 448 821 456Q821 464 823 472Q824 480 833 514Q841 548 844 556Q847 564 849 570Q852 576 855 580Q857 584 861 588Q864 592 868 595Q872 598 876 600Q880 602 884 603Q888 604 894 605Q900 606 906 606Q912 606 920 606Q928 605 952 601L976 597M-16 382Q-12 379 -10 375Q-8 372 -3 358Q2 344 6 336Q10 328 15 322Q20 315 27 310Q35 304 44 300Q53 296 66 293Q80 290 98 288Q116 286 132 286Q148 286 156 288Q164 289 170 292Q176 294 181 297Q185 300 189 304Q193 308 197 313Q200 318 203 325Q207 332 217 361Q228 390 231 395Q234 400 237 403Q240 407 244 410Q248 412 254 415Q260 417 266 417Q272 418 278 417Q284 415 290 412Q296 409 302 403Q308 397 312 391Q316 385 326 367Q337 348 342 340Q347 332 354 324Q361 316 368 310Q375 304 384 298Q394 292 405 287Q416 282 428 278Q440 274 466 267Q492 259 501 256Q511 252 514 250Q518 248 521 245Q524 243 533 231Q542 220 547 215Q552 211 554 209Q556 208 560 207Q564 205 568 205Q572 206 574 207Q576 208 578 210Q579 212 580 214Q581 216 582 220Q582 224 581 229Q580 233 578 237Q576 240 574 242Q572 244 562 252Q552 260 548 264Q544 268 542 272Q540 276 538 282Q537 288 536 296Q536 304 537 312Q538 320 540 328Q542 336 545 344Q548 352 552 358Q555 364 560 370Q564 375 570 381Q576 387 582 392Q588 396 594 400Q600 404 608 408Q616 412 638 421Q660 430 672 436Q684 441 694 447Q704 453 713 461Q722 468 729 476Q735 484 738 488Q740 492 743 498Q745 504 748 514Q750 524 751 538Q752 552 751 566Q750 580 747 610Q744 640 743 670Q742 700 740 710Q738 720 736 728Q733 736 730 742Q727 748 723 754Q719 760 716 764Q712 768 707 772Q703 776 697 779Q692 783 686 786Q680 788 674 790Q668 792 660 793Q652 795 644 794Q636 794 630 793Q624 792 618 790Q612 788 605 784Q598 780 589 773Q580 767 556 747Q532 727 518 716Q504 706 488 696Q472 686 440 667Q408 649 396 640Q384 632 360 612Q336 593 328 588Q320 583 314 581Q308 579 302 578Q296 577 290 577Q284 578 278 579Q272 580 266 583Q260 585 250 592Q240 598 222 613Q204 628 194 635Q184 642 174 647Q164 652 158 654Q152 655 148 656Q144 656 140 656Q136 656 132 656Q128 655 124 653Q120 652 116 650Q112 648 106 643Q100 638 86 622Q72 607 68 604Q64 601 60 599Q56 597 50 596Q44 595 38 595Q32 595 24 596Q16 597 0 600L-16 603M-16 750Q-1 756 4 760Q9 764 12 768Q15 772 16 778Q18 784 17 790Q16 796 13 802Q10 808 5 814Q-1 820 -8 826L-16 832M976 775Q972 768 969 764Q965 760 960 757Q956 754 950 752Q944 750 938 749Q932 748 926 747Q920 747 914 748Q908 748 902 750Q896 752 892 754Q888 756 883 760Q877 764 874 768Q870 772 867 776Q865 780 862 785Q860 789 858 795Q856 801 855 806Q853 812 853 818Q853 824 853 828Q853 832 854 836Q855 840 858 844Q860 848 862 850Q864 851 866 853Q868 854 872 855Q876 856 880 856Q884 856 888 855Q892 855 898 853Q904 851 912 848Q920 845 928 841Q936 837 942 833Q948 829 954 824Q959 820 963 816Q967 812 970 808Q973 804 974 800L976 797M690 319Q688 320 684 322Q681 324 679 328Q676 332 676 336Q676 340 678 346Q680 352 683 356Q686 360 689 362Q692 365 696 367Q700 368 706 369Q712 369 716 368Q720 367 722 366Q725 364 726 362Q728 360 729 356Q730 352 729 347Q728 341 725 337Q722 332 717 328Q712 324 708 322Q703 320 697 320Q692 319 690 319ZM62 431Q60 432 58 433Q56 434 55 437Q53 440 54 446Q54 452 59 464Q63 476 69 489Q76 502 80 507Q84 512 86 514Q88 516 92 519Q96 521 102 522Q108 523 114 523Q120 522 124 520Q128 518 133 515Q139 512 143 508Q148 504 151 500Q154 496 156 492Q158 488 158 484Q159 480 159 476Q159 472 158 468Q156 464 153 460Q150 456 147 454Q144 452 138 448Q132 445 126 443Q120 440 112 438Q104 435 96 434Q88 432 82 431Q76 430 70 430Q64 430 62 431ZM976 289Q966 296 961 300Q956 304 938 324Q920 343 916 347Q912 350 908 353Q903 356 896 360Q888 363 878 366Q868 369 858 371Q848 373 838 373Q828 374 822 373Q816 373 812 372Q808 371 804 369Q800 368 796 366Q792 363 786 358Q780 353 765 336Q751 320 744 314Q736 308 729 304Q723 300 713 296Q704 292 694 290Q684 288 674 286Q664 285 656 286Q648 286 645 287Q641 288 639 290Q636 291 634 295Q632 298 631 305Q630 312 629 330Q629 348 628 352Q627 356 626 359Q624 363 622 365Q620 367 618 368Q616 369 612 370Q608 370 604 370Q600 369 596 367Q592 366 588 363Q584 360 582 358Q579 356 576 352Q573 348 570 344Q568 340 567 336Q566 332 565 328Q564 324 564 320Q565 316 566 310Q568 304 572 299Q576 295 580 292Q584 289 594 284Q604 278 608 275Q612 272 614 268Q615 264 616 260Q616 256 616 244Q615 232 613 224Q612 216 610 210Q608 204 607 200Q605 196 602 192Q600 188 598 186Q596 184 592 181Q588 178 584 177Q580 176 576 175Q572 175 568 176Q564 177 560 178Q556 179 549 184Q542 188 535 194Q528 200 514 215Q500 230 496 233Q492 237 487 240Q481 244 471 249Q460 255 428 267Q396 279 388 283Q380 287 373 292Q365 296 358 302Q350 308 345 314Q339 320 325 338Q312 356 306 363Q300 370 296 373Q292 376 286 379Q280 381 276 381Q272 382 268 381Q264 380 260 377Q256 375 252 370Q248 366 245 361Q242 356 239 350Q236 344 228 322Q220 301 216 292Q212 283 210 280Q207 276 204 272Q200 269 198 268Q196 267 192 265Q188 264 180 264Q172 263 160 264Q148 265 114 268Q80 272 64 274Q48 277 38 280Q28 284 20 288Q12 292 4 298Q-4 304 -10 310L-16 316M976 616Q952 618 930 622Q908 627 898 628Q888 629 880 629Q872 629 864 628Q856 626 850 622Q844 619 839 613Q834 608 829 600Q825 592 816 572Q808 552 804 547Q800 541 798 540Q796 538 794 538Q792 538 790 540Q788 541 786 545Q785 548 782 556Q780 564 778 577Q776 589 775 599Q774 608 773 640Q771 672 770 682Q769 692 768 700Q766 708 764 714Q762 720 758 730Q754 740 749 748Q744 756 739 762Q734 768 727 774Q720 780 714 784Q708 788 700 792Q692 796 686 798Q680 800 672 802Q664 804 656 805Q648 806 640 805Q632 805 626 803Q620 802 614 800Q608 798 602 795Q596 792 586 785Q576 778 554 759Q532 741 518 731Q504 721 490 712Q476 703 452 690Q428 677 416 669Q404 662 394 655Q384 648 366 634Q348 620 340 615Q332 609 326 606Q320 603 314 601Q308 599 304 598Q300 597 294 597Q288 597 282 598Q276 599 270 601Q264 603 254 609Q244 615 222 632Q200 649 190 655Q180 662 174 665Q168 668 162 670Q156 672 146 674Q136 676 130 676Q124 676 120 675Q116 674 112 673Q108 672 105 670Q101 668 95 663Q88 657 78 647Q68 636 64 633Q60 629 56 626Q52 623 48 622Q44 620 38 618Q32 617 26 616Q20 616 12 616Q4 617 -6 618L-16 620M-16 728Q8 734 14 737Q20 740 24 743Q28 745 31 749Q35 752 38 756Q40 760 42 764Q44 768 45 774Q46 780 45 786Q45 792 43 796Q42 800 40 804Q38 808 35 812Q32 816 28 820Q25 824 19 828Q14 832 -1 841L-16 851M976 738Q964 733 956 731Q948 729 940 727Q932 726 924 725Q916 725 910 725Q904 725 898 726Q892 727 886 729Q880 731 876 733Q872 736 868 738Q864 741 860 746Q856 750 852 755Q849 760 846 766Q843 772 840 778Q838 784 836 792Q834 800 833 808Q831 816 831 824Q831 832 832 842Q833 852 834 856Q835 860 838 864Q840 868 842 870Q844 872 847 874Q849 876 853 877Q856 878 860 879Q864 880 868 879Q872 879 878 878Q884 877 896 872Q908 868 928 858Q949 848 962 839L976 831M52 -16Q16 19 11 26Q5 32 2 38Q-2 44 -5 51Q-8 58 -9 65Q-11 72 -11 80Q-11 88 -9 94Q-7 100 -5 104Q-3 108 1 112Q4 116 8 119Q12 122 18 124Q24 127 34 130Q44 132 71 136Q99 140 105 142Q112 144 116 146Q120 148 125 152Q129 156 133 162Q137 168 139 174Q140 180 141 184Q141 188 140 192Q140 196 139 200Q137 204 135 208Q132 213 128 216Q124 220 118 223Q112 227 106 229Q100 231 94 232Q88 234 66 238Q44 241 34 244Q24 246 14 250Q4 253 -6 259L-16 265M134 -16Q142 20 147 36Q151 52 156 62Q161 72 163 76Q166 80 170 84Q173 88 179 92Q184 95 192 99Q200 102 210 104Q220 106 242 109Q264 113 274 115Q284 118 288 120Q292 121 296 124Q300 126 304 131Q309 136 310 140Q312 144 313 148Q314 152 314 162Q314 172 313 184Q311 196 306 220Q301 244 301 252Q300 260 300 264Q301 268 302 270Q302 272 303 273Q304 274 306 276Q308 277 310 278Q312 278 316 278Q320 278 330 275Q340 273 372 262Q405 252 422 245Q440 238 449 233Q457 228 465 223Q472 217 478 211Q484 206 498 191Q513 176 522 168Q532 160 538 157Q544 153 550 150Q556 148 562 146Q568 144 574 143Q580 143 586 143Q592 143 598 145Q604 146 608 149Q612 151 616 155Q620 158 622 161Q624 164 627 170Q630 176 637 192Q644 208 646 214Q649 220 653 226Q657 232 664 238Q670 244 675 247Q680 251 685 253Q691 256 719 268Q746 280 755 285Q764 290 784 302Q804 314 814 318Q824 322 830 323Q836 324 844 324Q852 324 858 323Q864 322 870 319Q876 317 886 311Q896 304 913 290Q929 276 937 270Q944 265 952 260Q960 255 968 252L976 248M976 19Q964 34 960 41Q956 48 953 56Q950 64 950 72Q949 80 949 86Q950 92 952 96Q953 100 954 103Q956 106 960 111Q964 116 970 120L976 124M976 873Q952 881 926 894Q900 906 888 910Q876 915 868 917Q860 919 854 920Q848 920 842 920Q836 920 832 919Q828 918 824 916Q820 914 817 911Q813 908 811 905Q808 901 806 897Q804 893 801 885Q799 876 795 856Q792 836 790 828Q788 821 786 816Q784 811 782 809Q780 806 778 804Q776 803 772 801Q768 800 762 800Q756 800 724 810Q692 819 682 821Q672 823 664 824Q656 824 648 825Q640 825 633 824Q625 824 619 823Q612 822 606 820Q600 818 593 815Q587 812 579 807Q572 803 550 785Q528 767 518 760Q508 753 496 745Q484 738 460 725Q436 713 424 706Q412 699 402 692Q392 686 370 670Q348 654 340 648Q332 643 326 640Q320 637 314 635Q308 633 302 632Q296 631 290 631Q284 632 276 634Q268 636 258 641Q248 646 218 668Q188 690 159 707Q130 724 125 728Q120 732 118 734Q116 736 114 740Q111 744 109 750Q107 756 107 762Q106 768 106 776Q106 784 107 792Q108 800 111 814Q113 828 119 846Q124 863 125 870Q127 876 130 906Q133 936 137 956L141 976M-16 885Q4 877 12 874Q20 871 28 869Q36 868 42 867Q48 866 54 866Q60 866 64 867Q68 868 72 870Q76 872 79 876Q82 880 83 884Q84 888 83 894Q83 900 80 906Q78 912 76 916Q73 920 65 930Q56 940 37 958L19 976M16 -16Q-4 9 -10 18L-16 27M157 -16Q160 12 164 24Q167 36 170 41Q172 47 175 51Q177 56 181 60Q184 64 188 68Q192 71 199 76Q206 80 215 83Q224 87 234 89Q244 91 268 95Q292 99 300 101Q308 103 314 106Q320 109 324 113Q328 116 330 119Q332 122 333 125Q335 128 336 136Q337 144 337 152Q336 160 334 182Q332 204 332 214Q333 224 334 228Q335 232 336 234Q337 236 339 238Q341 240 344 242Q348 244 352 245Q356 246 360 246Q364 246 374 245Q384 244 396 241Q408 238 420 233Q432 228 440 224Q448 219 456 214Q463 208 484 188Q504 167 510 162Q516 157 522 153Q528 148 536 144Q543 140 550 137Q556 135 564 133Q572 131 580 130Q588 129 594 129Q600 130 606 132Q612 133 616 136Q620 138 624 141Q628 145 633 153Q637 160 645 178Q652 196 656 204Q660 212 664 218Q668 224 675 230Q681 236 687 239Q692 243 698 246Q704 249 731 261Q757 272 781 284Q804 295 814 299Q824 302 830 303Q836 304 842 304Q848 304 854 302Q860 301 866 299Q872 296 882 290Q892 284 908 270Q924 256 932 250Q940 244 948 239Q956 234 966 229L976 225M976 -16Q952 15 946 25Q939 36 937 42Q935 48 933 54Q931 60 930 66Q929 72 929 78Q929 84 929 90Q930 96 931 102Q932 108 934 113Q936 118 939 123Q942 128 945 132Q948 135 952 139Q956 142 960 145Q964 147 970 150L976 153M-16 131Q-4 142 4 147Q12 151 20 154Q28 156 45 160Q61 164 69 167Q76 169 78 171Q81 172 84 175Q88 178 90 181Q91 184 92 186Q92 188 91 192Q90 196 89 198Q87 200 85 202Q82 204 79 206Q75 208 70 210Q64 212 40 218Q16 225 8 228Q0 232 -8 236L-16 241M976 901Q964 902 958 903Q952 904 944 907Q936 910 914 919Q892 928 878 932Q864 936 856 937Q848 938 842 938Q836 939 830 938Q824 937 820 936Q816 935 810 931Q804 928 801 924Q797 920 795 916Q792 912 789 904Q786 896 782 878Q778 860 776 854Q774 848 771 842Q768 835 764 832Q760 828 758 827Q756 826 752 825Q748 823 742 823Q736 823 728 824Q720 824 696 828Q672 832 656 833Q640 834 628 833Q616 833 610 832Q604 830 598 829Q592 827 584 823Q577 820 570 816Q564 812 544 796Q524 780 512 772Q500 763 490 758Q480 752 456 740Q432 729 420 722Q408 715 398 708Q388 701 368 686Q348 671 340 666Q332 660 326 657Q320 654 314 652Q308 650 303 649Q298 648 293 648Q288 648 282 649Q276 650 270 652Q264 654 256 659Q248 663 240 669Q232 674 198 701Q163 728 159 732Q155 736 152 740Q149 744 145 750Q142 756 141 760Q140 764 140 768Q139 772 140 780Q141 788 142 794Q144 800 150 818Q157 836 158 842Q159 848 160 854Q161 860 161 870Q161 880 160 900Q158 920 158 930Q157 940 158 950Q158 960 160 968L161 976M-16 907Q4 902 10 902Q16 901 20 903Q24 904 26 906Q28 908 28 910Q29 912 29 916Q29 920 27 926Q24 932 20 938Q16 944 4 960L-9 976M976 944L951 976M175 -16Q177 8 179 14Q180 20 183 26Q185 32 187 36Q189 40 193 44Q196 49 200 52Q203 56 208 59Q212 62 220 66Q228 70 238 73Q248 76 260 78Q272 79 294 82Q316 84 324 85Q332 87 339 89Q346 92 349 94Q351 96 353 98Q355 100 357 106Q360 111 361 118Q361 124 361 132Q360 140 358 160Q355 180 355 190Q355 200 356 204Q357 208 359 212Q361 216 363 218Q365 220 369 222Q372 224 378 225Q384 226 392 225Q400 225 408 222Q416 220 425 216Q434 212 440 208Q446 204 451 200Q456 196 474 179Q492 161 498 156Q504 151 512 145Q520 139 528 135Q536 130 544 127Q552 124 562 121Q572 119 580 117Q588 116 596 117Q604 117 610 118Q616 119 620 121Q624 122 628 125Q632 128 634 130Q636 132 639 136Q642 140 644 144Q646 148 653 168Q661 188 664 195Q668 203 673 209Q677 216 685 223Q692 229 698 233Q704 237 712 241Q720 245 758 260Q796 275 808 279Q820 282 828 283Q836 284 842 284Q848 283 854 281Q860 280 866 277Q872 274 878 269Q884 265 893 257Q903 248 916 234Q929 220 934 214Q939 208 942 202Q946 196 946 194Q946 192 946 188Q946 184 944 180Q942 176 935 164Q928 152 925 146Q922 140 919 131Q916 123 914 113Q912 104 912 94Q911 84 912 75Q912 65 913 55Q915 44 917 30Q920 16 920 10Q921 4 920 2Q920 0 919 -2Q917 -4 915 -5Q912 -7 910 -7Q908 -8 902 -8Q896 -8 874 -6Q852 -4 840 -4Q828 -4 818 -6Q808 -8 804 -10Q800 -11 796 -14L793 -16M-16 180Q-14 188 -14 192Q-14 196 -15 198L-16 200M179 976Q175 956 175 946Q175 936 178 906Q181 876 182 864Q182 852 181 840Q180 828 175 806Q170 784 170 776Q170 768 172 762Q173 756 176 750Q180 744 186 736Q193 728 203 718Q214 708 225 699Q236 690 244 684Q252 679 258 675Q265 672 272 669Q280 667 286 666Q292 666 300 667Q308 668 313 670Q319 672 323 674Q328 677 336 682Q345 688 366 705Q388 723 398 730Q408 737 420 744Q432 750 454 760Q476 769 486 774Q496 779 506 786Q516 792 536 808Q556 823 566 828Q576 834 586 837Q596 840 608 841Q620 843 636 843Q652 843 684 841Q716 838 724 839Q732 839 738 841Q744 843 748 847Q752 850 756 855Q760 861 763 869Q766 876 769 892Q773 908 776 916Q778 924 782 930Q785 936 789 940Q793 944 796 946Q800 949 804 950Q808 952 818 954Q828 956 840 956Q852 956 876 954Q900 952 906 953Q912 953 915 955Q917 956 919 958Q920 960 920 964Q921 968 921 972L920 976M206 -16Q209 0 211 6Q213 12 217 18Q221 24 226 29Q232 34 238 38Q244 41 250 44Q256 46 264 47Q272 49 282 49Q292 50 302 49Q312 49 322 47Q332 45 342 42Q352 39 362 35Q372 31 380 26Q388 22 394 17Q401 12 406 6Q412 0 417 -8L422 -16M465 -16Q451 24 443 56Q436 88 430 110Q424 132 423 138Q422 144 423 148Q424 152 426 153Q428 154 430 154Q432 154 436 153Q440 152 456 141Q472 130 481 125Q490 120 501 115Q512 111 524 107Q536 103 550 99Q564 96 578 94Q592 91 604 91Q616 90 626 91Q636 92 640 94Q644 95 648 97Q652 100 656 104Q660 108 662 112Q664 116 665 120Q667 124 671 142Q675 160 678 170Q681 180 686 188Q690 196 693 200Q696 204 700 208Q704 211 708 214Q712 217 718 221Q724 224 736 229Q748 234 766 239Q784 244 792 245Q800 246 806 246Q812 247 818 246Q824 246 829 245Q834 244 839 242Q844 240 848 238Q852 235 856 232Q860 228 864 224Q867 220 870 216Q872 212 875 206Q878 200 880 190Q882 180 883 168Q883 156 881 126Q880 96 877 82Q875 68 873 62Q871 56 869 52Q867 48 863 45Q860 41 856 39Q852 36 844 34Q836 31 810 27Q784 23 780 21Q775 20 771 18Q767 16 763 13Q760 10 758 7Q755 4 753 0Q751 -4 750 -10L748 -16M215 976Q212 968 210 962Q208 956 207 950Q206 944 206 936Q206 928 208 916Q209 904 215 872Q221 840 224 812Q226 784 228 776Q229 768 231 764Q232 760 235 754Q238 748 241 744Q244 740 248 736Q252 732 256 729Q260 726 265 723Q269 720 275 718Q280 716 284 716Q288 715 292 716Q296 716 302 718Q308 720 314 724Q320 727 325 732Q329 736 337 746Q345 756 357 774Q368 792 374 801Q380 809 386 816Q392 824 405 838Q419 852 422 856Q425 860 427 864Q430 868 431 874Q433 880 433 888Q433 896 432 906Q431 916 429 924Q427 932 424 938Q422 944 419 950Q415 956 410 962Q405 968 401 972L396 976M453 976Q468 934 470 925Q473 916 474 906Q475 896 474 884Q474 872 474 868Q474 864 475 862Q476 859 478 857Q480 855 482 854Q484 853 488 852Q492 852 498 852Q504 853 522 856Q540 860 552 861Q564 863 584 863Q604 864 644 862Q684 861 694 862Q704 863 710 865Q716 867 720 870Q724 872 726 874Q728 876 732 882Q736 888 739 896Q742 904 745 923Q748 943 750 949Q751 956 755 962Q758 968 762 972L767 976M223 -16Q226 -4 228 0Q229 4 233 9Q236 14 240 17Q244 21 248 23Q252 26 258 28Q264 30 270 32Q276 33 282 33Q288 34 296 33Q304 33 310 31Q316 30 324 28Q332 25 338 23Q343 20 350 16Q356 12 361 8Q365 4 369 0Q372 -4 376 -10L380 -16M505 -16Q490 20 487 34Q483 48 482 54Q482 60 482 64Q482 68 483 72Q484 76 486 79Q488 82 492 84Q496 87 500 87Q504 88 508 88Q512 88 522 87Q532 87 564 82Q596 78 610 77Q624 76 636 76Q648 76 652 77Q656 77 661 79Q665 80 669 82Q672 85 674 88Q676 90 677 93Q678 96 679 102Q681 108 682 126Q684 144 686 154Q688 164 691 172Q694 180 696 184Q698 188 701 192Q704 196 708 200Q712 204 716 207Q720 210 730 215Q740 220 746 222Q752 224 760 226Q768 228 776 229Q784 230 790 231Q796 231 806 230Q816 229 820 228Q824 226 828 224Q832 223 837 219Q841 216 845 212Q848 209 851 204Q854 200 856 196Q858 192 861 182Q864 172 865 158Q866 144 866 128Q865 112 864 104Q864 96 862 90Q861 84 859 78Q857 72 854 68Q852 64 848 60Q844 56 840 54Q836 51 830 49Q824 47 818 46Q812 44 786 41Q760 38 756 37Q752 36 748 34Q744 32 742 30Q739 28 738 26Q736 24 735 20Q733 16 732 10Q731 4 731 -6L731 -16M238 976Q232 968 230 964Q228 960 226 956Q225 952 224 946Q223 940 222 934Q222 928 223 922Q223 916 226 903Q228 890 236 863Q244 837 248 826Q252 815 256 806Q260 797 263 792Q266 788 269 784Q272 781 276 778Q280 775 284 775Q288 774 292 775Q296 775 300 778Q304 780 310 785Q316 790 322 797Q328 804 340 819Q352 833 360 845Q368 856 373 864Q377 872 381 880Q384 888 385 894Q387 900 387 906Q387 912 387 918Q386 924 385 930Q383 936 380 942Q378 948 373 954Q369 960 365 964Q361 968 356 972L350 976M492 976Q507 940 513 928Q519 916 525 908Q531 900 537 895Q544 890 552 886Q560 883 572 881Q584 878 606 876Q628 873 646 872Q664 872 674 872Q684 873 692 875Q700 877 706 880Q712 884 716 888Q720 892 723 898Q726 904 727 910Q729 916 729 924Q730 932 731 948Q731 964 732 970L733 976M243 -16Q249 -4 250 -2Q252 0 256 4Q260 7 266 10Q272 12 280 14Q288 15 292 15Q296 15 302 13Q308 12 316 9Q324 6 332 1Q339 -4 344 -10L349 -16M531 -16Q522 4 520 12Q518 20 517 28Q516 36 516 42Q517 48 519 52Q522 56 524 58Q526 60 529 61Q532 63 538 64Q544 66 552 66Q560 67 578 65Q596 64 618 61Q640 58 654 55Q668 52 676 49Q684 46 688 43Q692 40 694 38Q696 36 700 30Q703 24 707 14Q710 4 712 -6L713 -16M519 976Q527 952 532 942Q538 932 544 924Q550 916 557 910Q564 904 571 900Q579 896 589 893Q600 889 614 887Q628 885 640 884Q652 883 662 884Q672 884 680 886Q687 888 691 890Q695 892 698 894Q700 896 703 900Q707 904 709 910Q712 917 713 926Q714 936 713 946Q712 956 709 966L706 976M754 59Q752 60 744 61Q736 63 730 65Q724 68 720 70Q716 73 712 79Q708 84 706 89Q704 93 702 99Q701 104 699 114Q697 124 697 134Q697 144 698 154Q700 163 702 170Q705 176 708 181Q712 187 716 191Q721 196 726 200Q732 204 740 207Q748 211 756 213Q764 215 772 216Q780 217 787 216Q794 216 802 214Q810 212 817 208Q824 204 830 198Q835 192 839 186Q842 180 845 170Q848 161 849 150Q851 140 851 130Q850 120 849 110Q847 100 845 94Q843 88 840 82Q836 77 832 73Q828 70 824 67Q820 65 814 63Q808 61 800 60Q792 59 784 58Q776 58 766 59Q756 59 754 59ZM294 836Q292 836 288 837Q284 838 280 840Q276 842 272 846Q268 850 264 855Q260 861 256 869Q252 876 249 884Q246 892 244 900Q242 908 241 916Q240 924 241 930Q241 936 242 940Q243 944 245 948Q246 952 249 956Q252 960 256 964Q260 967 264 969Q268 971 272 972Q276 973 282 974Q288 975 294 974Q300 974 306 973Q312 971 318 969Q324 966 330 962Q336 959 340 955Q344 951 348 946Q352 940 354 934Q357 928 357 922Q358 916 358 910Q358 904 356 898Q355 892 352 886Q349 880 345 873Q340 866 334 859Q328 853 322 848Q316 843 310 840Q304 837 300 837Q296 836 294 836ZM583 -16Q579 -8 578 -4Q577 0 577 4Q577 8 578 12Q580 16 582 18Q584 21 587 22Q590 24 597 25Q604 26 610 26Q616 26 622 25Q628 23 633 22Q637 20 643 17Q648 14 652 11Q657 8 660 4Q664 0 666 -4Q669 -8 670 -12L671 -16M580 976Q577 968 577 962Q578 956 580 950Q583 944 587 938Q592 933 596 930Q600 926 606 923Q612 920 618 918Q624 916 632 915Q640 914 646 914Q652 915 658 918Q663 920 665 922Q667 924 669 926Q670 928 671 932Q672 936 671 942Q670 948 667 954Q664 960 660 964Q656 969 651 972L645 976M762 99Q760 99 756 101Q752 103 748 106Q744 109 741 113Q738 116 735 120Q733 124 731 128Q730 132 729 136Q728 140 728 144Q728 148 729 152Q729 156 731 160Q732 164 734 167Q736 169 739 173Q743 176 746 178Q749 180 754 182Q760 184 764 185Q768 185 772 185Q776 185 780 184Q784 183 788 181Q792 180 796 177Q800 174 803 171Q805 168 808 164Q810 160 812 156Q813 152 814 148Q815 144 815 138Q815 132 815 128Q814 124 813 120Q812 116 810 113Q808 110 805 107Q803 104 800 102Q796 100 792 99Q788 97 784 97Q780 96 776 96Q772 96 768 97Q764 98 762 99ZM774 128Q772 128 770 128Q768 128 765 130Q762 132 760 134Q758 136 757 140Q756 144 756 146Q757 148 758 151Q760 153 762 155Q764 156 766 156Q768 157 771 156Q774 156 777 154Q780 152 782 150Q783 148 784 146Q785 144 785 142Q785 140 785 138Q784 135 782 133Q780 130 778 129Q776 128 774 128Z"/><path stroke-width="2.2" d="M-16 469Q-8 473 -4 476Q0 479 6 486Q12 492 15 496Q17 500 20 506Q23 512 24 516Q25 520 25 524Q25 528 24 534Q23 540 22 543Q20 546 17 549Q15 552 9 556Q4 560 -1 562Q-5 564 -11 566L-16 567M976 498Q964 483 960 479Q956 476 952 473Q948 471 944 469Q940 467 934 466Q928 464 924 464Q920 463 916 463Q912 464 906 466Q900 468 897 470Q894 472 891 475Q888 479 886 481Q885 484 883 488Q882 492 881 496Q880 500 880 506Q879 512 880 518Q880 524 881 528Q882 532 885 540Q888 547 892 552Q896 557 898 559Q900 561 904 563Q908 565 912 566Q916 568 920 568Q924 569 928 569Q932 569 938 568Q944 567 949 566Q955 564 959 562Q964 560 967 558Q970 556 973 553L976 551M434 299Q432 300 426 302Q420 304 414 306Q408 309 402 312Q396 316 391 320Q386 324 379 332Q372 340 368 346Q364 352 362 358Q359 364 356 372Q353 380 351 390Q348 400 341 444Q334 488 334 494Q334 500 334 504Q335 508 336 512Q337 516 339 522Q342 528 349 542Q357 556 366 568Q374 580 383 590Q392 600 400 607Q408 614 418 620Q428 627 450 639Q472 651 484 659Q496 666 508 676Q520 685 554 714Q588 743 598 750Q608 757 614 760Q620 763 626 765Q632 767 638 768Q644 769 650 768Q656 767 660 766Q664 765 668 763Q672 761 678 757Q684 752 687 748Q690 744 692 740Q695 736 697 728Q700 720 701 712Q703 704 704 678Q706 652 710 624Q715 596 716 584Q717 572 717 566Q717 560 717 553Q716 547 715 541Q714 536 711 530Q709 524 707 519Q704 515 700 510Q696 504 688 498Q680 491 670 485Q660 479 640 471Q620 462 610 457Q600 452 590 445Q580 438 570 430Q560 421 552 412Q544 403 538 395Q532 386 526 375Q520 364 511 344Q501 324 499 320Q496 316 492 311Q488 307 484 304Q480 301 474 300Q468 298 460 297Q452 297 444 298Q436 299 434 299ZM122 336Q120 336 114 338Q108 339 105 342Q102 344 101 346Q100 348 100 350Q100 352 100 354Q100 356 103 360Q105 364 110 368Q115 372 120 374Q124 376 130 377Q136 378 140 377Q144 376 147 374Q151 372 152 370Q153 368 154 366Q154 364 154 360Q154 356 152 352Q150 348 147 345Q144 342 140 340Q136 338 130 337Q124 336 122 336ZM976 59Q974 72 974 76Q975 80 975 82L976 85M976 268Q961 276 955 280Q949 284 942 289Q936 295 920 309Q904 324 900 327Q896 330 890 334Q884 337 876 340Q868 343 860 345Q852 346 844 347Q836 347 828 345Q820 344 814 342Q808 339 802 336Q796 332 778 318Q760 304 750 298Q740 291 728 286Q716 280 694 272Q672 264 664 259Q656 255 652 251Q648 248 644 242Q640 236 637 230Q634 224 627 206Q620 188 618 184Q616 179 613 176Q611 172 607 169Q604 165 599 163Q595 160 589 159Q584 157 578 158Q572 158 567 159Q562 160 557 162Q552 164 548 166Q544 168 538 172Q532 176 526 182Q519 188 503 204Q488 220 478 228Q468 236 456 242Q444 249 414 260Q385 272 372 278Q359 284 353 288Q346 292 341 296Q335 300 320 315Q304 330 300 333Q296 336 292 338Q288 340 286 341Q284 341 280 341Q276 341 272 338Q268 336 266 334Q264 332 261 326Q257 320 255 312Q252 304 252 294Q251 284 252 278Q253 272 255 266Q257 260 266 242Q276 223 281 212Q285 200 287 190Q289 180 289 176Q289 172 289 167Q288 162 287 159Q286 156 283 152Q281 148 278 146Q276 143 272 141Q268 139 264 137Q260 135 254 134Q248 133 236 132Q224 131 216 132Q208 133 203 134Q197 136 194 138Q190 140 187 143Q184 147 183 149Q182 152 181 156Q180 160 178 178Q177 196 176 204Q174 212 171 218Q168 224 164 228Q160 232 157 234Q154 236 147 239Q140 243 131 245Q121 248 111 250Q100 252 76 255Q52 258 40 261Q28 264 22 266Q16 268 10 271Q4 274 -6 281L-16 288M976 637Q964 637 958 638Q952 639 944 641Q936 643 930 646Q923 648 919 650Q915 652 909 656Q903 660 899 664Q895 668 893 672Q891 676 891 678Q891 680 892 682Q893 684 895 686Q897 688 902 691Q908 694 920 698Q932 701 954 706L976 711M-16 641Q0 638 6 637Q12 637 18 638Q24 639 28 640Q32 641 36 644Q40 646 44 649Q48 652 52 656Q56 661 64 672Q73 684 76 688Q80 692 82 693Q84 694 90 697Q96 699 100 699Q104 700 110 700Q116 699 122 699Q128 698 136 696Q144 694 152 691Q160 688 168 684Q176 680 188 673Q200 665 222 649Q244 632 254 627Q264 621 270 619Q276 617 280 616Q284 615 290 615Q296 614 300 615Q304 615 312 618Q320 620 328 625Q336 629 362 648Q388 667 398 673Q408 680 420 687Q432 694 458 709Q484 723 498 732Q512 741 522 748Q532 755 550 770Q568 786 576 791Q584 797 592 802Q600 806 608 809Q616 812 624 813Q632 815 642 815Q652 815 664 814Q676 812 686 809Q696 806 706 802Q716 798 726 793Q735 788 744 782Q753 776 770 763Q788 749 792 747Q796 746 798 745Q800 745 802 745Q804 746 806 749Q808 752 810 758Q811 764 811 798Q811 832 812 840Q812 848 813 856Q815 864 816 870Q818 876 821 881Q824 887 828 891Q832 895 836 897Q840 899 844 900Q848 900 854 900Q860 900 866 899Q872 898 878 897Q884 895 898 889Q912 883 944 867L976 852M-16 704Q36 716 42 718Q48 720 52 722Q56 725 59 728Q63 732 66 738Q69 744 71 752Q73 760 73 770Q74 780 74 788Q73 796 71 802Q70 808 66 814Q63 820 60 824Q56 828 51 832Q45 836 41 839Q36 842 10 854L-16 867M53 976Q72 965 76 963Q80 962 84 961Q88 960 92 961Q96 961 98 962Q100 963 103 966Q106 968 109 972L112 976M78 2Q76 3 70 6Q64 9 56 14Q48 19 42 24Q36 30 31 35Q27 40 23 46Q19 52 17 58Q15 64 14 70Q14 76 15 80Q16 84 18 88Q20 92 24 96Q28 99 32 102Q37 104 42 106Q48 107 56 108Q64 109 72 109Q80 109 88 109Q96 108 102 106Q108 104 112 102Q116 101 119 98Q121 96 123 94Q124 92 125 88Q127 84 127 76Q127 68 125 56Q123 44 121 38Q119 32 117 26Q114 20 112 16Q109 12 107 9Q104 6 102 4Q100 3 96 2Q92 0 86 1Q80 2 78 2ZM191 -16Q192 -4 193 2Q194 8 196 14Q198 20 200 24Q202 28 205 32Q208 36 212 40Q216 44 220 47Q224 50 228 52Q232 54 242 57Q252 61 266 63Q280 65 292 65Q304 66 328 65Q352 64 360 64Q368 64 374 65Q380 67 384 69Q388 72 390 74Q391 76 392 80Q394 84 394 92Q394 100 393 108Q391 116 386 136Q381 156 380 166Q379 176 380 180Q380 184 382 188Q383 192 385 194Q386 196 389 198Q392 200 396 201Q400 202 406 202Q412 201 416 200Q420 199 426 196Q432 193 441 187Q450 180 465 166Q480 152 487 146Q494 140 503 134Q512 128 522 123Q532 118 542 115Q552 111 564 109Q576 106 586 105Q596 104 606 104Q616 104 622 106Q628 107 632 109Q636 111 639 113Q643 116 645 119Q648 122 652 130Q656 138 662 157Q668 176 671 184Q675 192 680 200Q685 208 689 212Q692 215 696 218Q700 222 706 226Q712 229 718 232Q724 235 742 242Q760 249 780 255Q800 261 808 263Q816 264 822 264Q828 265 834 264Q840 264 846 262Q852 260 856 258Q860 256 866 252Q872 248 878 242Q884 236 889 230Q893 224 897 218Q900 212 903 206Q905 200 906 194Q907 188 907 182Q907 176 902 146Q897 116 895 86Q893 56 893 50Q892 44 891 40Q890 36 887 32Q885 28 883 26Q881 24 879 22Q876 21 868 18Q860 16 838 14Q816 11 806 9Q796 7 792 6Q788 4 784 2Q780 -1 776 -4Q773 -8 770 -12L768 -16M197 976Q192 956 191 946Q191 936 191 926Q192 916 196 894Q199 872 200 860Q201 848 201 836Q201 824 199 804Q198 784 198 778Q198 772 199 766Q201 760 203 754Q206 748 210 742Q214 736 221 728Q228 720 235 714Q242 708 249 703Q256 698 262 695Q268 692 274 690Q280 688 286 687Q292 687 297 687Q302 688 307 690Q312 691 317 694Q322 696 327 699Q332 702 342 711Q353 720 372 739Q392 759 400 765Q408 771 412 773Q416 775 422 778Q428 780 448 785Q468 791 478 795Q488 798 496 803Q505 808 522 820Q540 833 550 838Q560 843 570 846Q580 849 592 851Q604 852 618 853Q632 853 666 852Q700 850 708 851Q716 852 723 854Q729 856 733 858Q736 860 738 862Q740 864 744 870Q748 876 751 884Q754 892 759 914Q764 936 767 942Q770 948 773 952Q776 956 782 960Q788 964 796 967Q804 969 812 971Q820 972 840 974L860 976M278 -16Q284 -13 288 -13Q292 -12 296 -13Q300 -13 304 -15L308 -16M555 -16Q548 0 547 6Q546 12 545 18Q545 24 546 28Q548 32 551 36Q554 40 557 42Q560 44 566 46Q572 47 580 48Q588 48 598 48Q608 47 620 45Q632 43 640 40Q648 38 656 34Q664 30 670 25Q676 20 680 15Q684 11 688 3Q691 -4 693 -10L695 -16M545 976Q548 960 552 951Q556 943 561 935Q566 928 573 922Q580 916 586 912Q593 908 603 905Q612 901 622 899Q632 897 640 897Q648 896 656 897Q664 898 670 900Q676 901 681 905Q686 908 687 910Q689 912 691 916Q693 920 694 926Q695 932 695 940Q694 948 691 956Q688 964 684 970L680 976M778 76Q776 76 768 77Q760 78 754 80Q748 82 743 85Q738 88 733 92Q728 96 725 100Q722 104 719 110Q716 116 714 123Q712 130 711 137Q711 144 712 150Q712 156 714 162Q716 168 718 172Q720 176 724 180Q728 185 733 188Q738 192 743 195Q748 197 754 199Q760 201 768 201Q776 202 782 202Q788 201 794 199Q800 197 805 195Q809 192 813 188Q818 184 821 180Q824 175 827 170Q829 164 831 158Q833 152 833 144Q834 136 834 130Q834 124 833 118Q832 111 830 106Q828 100 825 96Q822 92 818 88Q813 84 809 82Q804 79 798 78Q792 77 786 76Q780 76 778 76ZM297 880Q296 880 292 881Q288 881 286 883Q284 884 280 887Q276 891 272 897Q269 904 268 910Q266 916 267 922Q267 928 267 930Q268 932 270 935Q272 939 276 942Q280 945 284 946Q288 948 294 947Q300 947 304 945Q308 944 310 943Q312 941 316 937Q321 932 322 929Q324 926 325 923Q326 920 326 914Q325 908 324 904Q323 900 321 897Q320 895 318 892Q316 889 313 887Q310 884 307 883Q304 881 301 881Q298 880 297 880Z"/></g></svg>
